<svg width="12" height="12" viewBox="0 0 12 12" fill="none" xmlns="http://www.w3.org/2000/svg">
  <path fill-rule="evenodd" clip-rule="evenodd" d="M6 11.5C9.05 11.5 11.5 9.05 11.5 6C11.5 2.95 9.05 0.5 6 0.5C2.95 0.5 0.5 2.95 0.5 6C0.5 9.05 2.95 11.5 6 11.5ZM6.1 6.95C6.3 6.9 7.95 6.3 7.95 5C7.95 4.15 7.4 3.4 6.6 3.15C5.55 2.75 4.4 3.3 4.05 4.35C4 4.6 4.1 4.9 4.35 4.9C4.6 5 4.9 4.85 5 4.6C5.2 4.1 5.8 3.8 6.3 4C6.7 4.15 6.95 4.5 6.95 4.95C6.95 5.5 6.1 5.9 5.8 6C5.55 6.1 5.4 6.4 5.5 6.65C5.55 6.85 5.75 7 5.95 7C6 7 6.05 7 6.1 6.95ZM10.5 6C10.5 3.5 8.5 1.5 6 1.5C3.5 1.5 1.5 3.5 1.5 6C1.5 8.5 3.5 10.5 6 10.5C8.5 10.5 10.5 8.5 10.5 6ZM6.25 8.1C6.3 8.1 6.35 8.15 6.35 8.15C6.4 8.2 6.45 8.25 6.4 8.3C6.45 8.35 6.45 8.45 6.45 8.5C6.45 8.65 6.4 8.75 6.3 8.85C6.2 8.95 6.1 9 5.95 9C5.8 9 5.7 8.95 5.6 8.85C5.5 8.75 5.45 8.65 5.45 8.5C5.45 8.44142 5.46716 8.4 5.48137 8.36569C5.49142 8.34142 5.5 8.32071 5.5 8.3C5.5 8.25 5.55 8.2 5.6 8.15C5.65 8.1 5.7 8.05 5.75 8.05C5.85 8 5.95 8 6.05 8C6.07875 8.02875 6.09097 8.04097 6.10567 8.04616C6.11653 8.05 6.12875 8.05 6.15 8.05C6.175 8.05 6.1875 8.0625 6.2 8.075C6.2125 8.0875 6.225 8.1 6.25 8.1Z" fill="black"/>
  <mask id="mask0_1_9683" style="mask-type:luminance" maskUnits="userSpaceOnUse" x="0" y="0" width="12" height="12">
  <path fill-rule="evenodd" clip-rule="evenodd" d="M6 11.5C9.05 11.5 11.5 9.05 11.5 6C11.5 2.95 9.05 0.5 6 0.5C2.95 0.5 0.5 2.95 0.5 6C0.5 9.05 2.95 11.5 6 11.5ZM6.1 6.95C6.3 6.9 7.95 6.3 7.95 5C7.95 4.15 7.4 3.4 6.6 3.15C5.55 2.75 4.4 3.3 4.05 4.35C4 4.6 4.1 4.9 4.35 4.9C4.6 5 4.9 4.85 5 4.6C5.2 4.1 5.8 3.8 6.3 4C6.7 4.15 6.95 4.5 6.95 4.95C6.95 5.5 6.1 5.9 5.8 6C5.55 6.1 5.4 6.4 5.5 6.65C5.55 6.85 5.75 7 5.95 7C6 7 6.05 7 6.1 6.95ZM10.5 6C10.5 3.5 8.5 1.5 6 1.5C3.5 1.5 1.5 3.5 1.5 6C1.5 8.5 3.5 10.5 6 10.5C8.5 10.5 10.5 8.5 10.5 6ZM6.25 8.1C6.3 8.1 6.35 8.15 6.35 8.15C6.4 8.2 6.45 8.25 6.4 8.3C6.45 8.35 6.45 8.45 6.45 8.5C6.45 8.65 6.4 8.75 6.3 8.85C6.2 8.95 6.1 9 5.95 9C5.8 9 5.7 8.95 5.6 8.85C5.5 8.75 5.45 8.65 5.45 8.5C5.45 8.44142 5.46716 8.4 5.48137 8.36569C5.49142 8.34142 5.5 8.32071 5.5 8.3C5.5 8.25 5.55 8.2 5.6 8.15C5.65 8.1 5.7 8.05 5.75 8.05C5.85 8 5.95 8 6.05 8C6.07875 8.02875 6.09097 8.04097 6.10567 8.04616C6.11653 8.05 6.12875 8.05 6.15 8.05C6.175 8.05 6.1875 8.0625 6.2 8.075C6.2125 8.0875 6.225 8.1 6.25 8.1Z" fill="white"/>
  </mask>
  <g mask="url(#mask0_1_9683)">
  <rect width="12" height="12" fill="#7367F0"/>
  </g>
  </svg>
